<?xml version="1.0" encoding="UTF-8" standalone="no"?>
<!-- Created with Inkscape (http://www.inkscape.org/) -->

<svg
   width="148mm"
   height="210mm"
   viewBox="0 0 148 210"
   version="1.1"
   id="svg3650"
   inkscape:version="1.1.2 (0a00cf5339, 2022-02-04)"
   sodipodi:docname="anavi-macro-pad-12-bottom.svg"
   xmlns:inkscape="http://www.inkscape.org/namespaces/inkscape"
   xmlns:sodipodi="http://sodipodi.sourceforge.net/DTD/sodipodi-0.dtd"
   xmlns="http://www.w3.org/2000/svg"
   xmlns:svg="http://www.w3.org/2000/svg">
  <sodipodi:namedview
     id="namedview3652"
     pagecolor="#ffffff"
     bordercolor="#666666"
     borderopacity="1.0"
     inkscape:pageshadow="2"
     inkscape:pageopacity="0.0"
     inkscape:pagecheckerboard="0"
     inkscape:document-units="mm"
     showgrid="false"
     inkscape:zoom="0.72693603"
     inkscape:cx="396.87124"
     inkscape:cy="451.89671"
     inkscape:window-width="1834"
     inkscape:window-height="1009"
     inkscape:window-x="86"
     inkscape:window-y="34"
     inkscape:window-maximized="1"
     inkscape:current-layer="layer1" />
  <defs
     id="defs3647" />
  <g
     inkscape:label="Layer 1"
     inkscape:groupmode="layer"
     id="layer1">
    <path
       style="fill:none;stroke:#000000;stroke-width:0.047625;stroke-linecap:round;stroke-linejoin:round;stroke-miterlimit:10;stroke-opacity:1"
       d="m 1.7904564,6.7886019 c 0,-1.3270485 0.527791,-2.5976025 1.464857,-3.5360445 0.937062,-0.937069 2.208995,-1.464856 3.5360435,-1.464856"
       id="path642" />
    <path
       style="fill:none;stroke:#000000;stroke-width:0.100542;stroke-linecap:round;stroke-linejoin:round;stroke-miterlimit:10;stroke-opacity:1"
       d="m 8.4022849,6.7941189 c 0,0.898476 -0.72898,1.62608 -1.627463,1.62608 -0.8984795,0 -1.6274635,-0.727604 -1.6274635,-1.62608 0,-0.8998655 0.728984,-1.6274705 1.6274635,-1.6274705 0.898483,0 1.627463,0.727605 1.627463,1.6274705 z m 0,0"
       id="path644" />
    <path
       style="fill:none;stroke:#000000;stroke-width:0.047625;stroke-linecap:round;stroke-linejoin:round;stroke-miterlimit:10;stroke-opacity:1"
       d="M 1.7877014,113.54522 V 6.7858459"
       id="path666" />
    <path
       style="fill:none;stroke:#000000;stroke-width:0.047625;stroke-linecap:round;stroke-linejoin:round;stroke-miterlimit:10;stroke-opacity:1"
       d="M 6.7886019,118.54612 H 69.785617"
       id="path668" />
    <path
       style="fill:none;stroke:#000000;stroke-width:0.047625;stroke-linecap:round;stroke-linejoin:round;stroke-miterlimit:10;stroke-opacity:1"
       d="M 6.7886019,1.7904594 H 69.785617"
       id="path670" />
    <path
       style="fill:none;stroke:#000000;stroke-width:0.100542;stroke-linecap:round;stroke-linejoin:round;stroke-miterlimit:10;stroke-opacity:1"
       d="m 8.3278729,113.93383 c 0,0.89848 -0.727604,1.62746 -1.6274625,1.62746 -0.898483,0 -1.626087,-0.72898 -1.626087,-1.62746 0,-0.89848 0.727604,-1.62746 1.626087,-1.62746 0.8998585,0 1.6274625,0.72898 1.6274625,1.62746 z m 0,0"
       id="path672" />
    <path
       style="fill:none;stroke:#000000;stroke-width:0.047625;stroke-linecap:round;stroke-linejoin:round;stroke-miterlimit:10;stroke-opacity:1"
       d="m 6.7913569,118.5475 c -1.3270485,0 -2.5989815,-0.52641 -3.5360435,-1.46485 -0.937066,-0.93707 -1.464857,-2.209 -1.464857,-3.53467"
       id="path674" />
    <path
       style="fill:none;stroke:#000000;stroke-width:0.047625;stroke-linecap:round;stroke-linejoin:round;stroke-miterlimit:10;stroke-opacity:1"
       d="m 74.787897,113.54798 c 0,1.32567 -0.52641,2.5976 -1.46348,3.53467 -0.93844,0.93844 -2.21037,1.46485 -3.53605,1.46485"
       id="path676" />
    <path
       style="fill:none;stroke:#000000;stroke-width:0.100542;stroke-linecap:round;stroke-linejoin:round;stroke-miterlimit:10;stroke-opacity:1"
       d="m 71.320757,113.93383 c 0,0.89848 -0.72899,1.62746 -1.62747,1.62746 -0.89848,0 -1.62746,-0.72898 -1.62746,-1.62746 0,-0.89848 0.72898,-1.62746 1.62746,-1.62746 0.89848,0 1.62747,0.72898 1.62747,1.62746 z m 0,0"
       id="path678" />
    <path
       style="fill:none;stroke:#000000;stroke-width:0.047625;stroke-linecap:round;stroke-linejoin:round;stroke-miterlimit:10;stroke-opacity:1"
       d="M 74.786527,6.7858459 V 113.54522"
       id="path680" />
    <path
       style="fill:none;stroke:#000000;stroke-width:0.100542;stroke-linecap:round;stroke-linejoin:round;stroke-miterlimit:10;stroke-opacity:1"
       d="m 71.393787,6.7941189 c 0,0.898476 -0.7276,1.62608 -1.62608,1.62608 -0.89986,0 -1.62747,-0.727604 -1.62747,-1.62608 0,-0.8998655 0.72761,-1.6274705 1.62747,-1.6274705 0.89848,0 1.62608,0.727605 1.62608,1.6274705 z m 0,0"
       id="path682" />
    <path
       style="fill:none;stroke:#000000;stroke-width:0.047625;stroke-linecap:round;stroke-linejoin:round;stroke-miterlimit:10;stroke-opacity:1"
       d="m 69.788377,1.7877014 c 1.32567,0 2.5976,0.527787 3.53604,1.464856 0.93707,0.938442 1.46348,2.208996 1.46348,3.5360445"
       id="path684" />
  </g>
</svg>
